<?xml version="1.0" encoding="UTF-8"?>
<svg id="Layer_2" data-name="Layer 2" xmlns="http://www.w3.org/2000/svg" viewBox="0 0 779.11 184.65">
  <g id="Layer_1-2" data-name="Layer 1">
    <g>
      <path d="M258.02,47.51h-12.93V4.67h12.93c3.29,0,6.3,.51,8.95,1.51,2.63,.99,4.9,2.46,6.75,4.38,3.63,3.75,5.55,9.1,5.55,15.48s-1.93,11.78-5.57,15.55c-3.74,3.87-9.16,5.92-15.68,5.92h0Zm-9.57-3.36h9.57c2.86,0,5.47-.44,7.74-1.3,2.16-.82,4.02-2.03,5.53-3.59,3.03-3.14,4.63-7.71,4.63-13.22s-1.59-10.03-4.61-13.14c-1.5-1.55-3.36-2.75-5.53-3.57-2.27-.86-4.88-1.29-7.76-1.29h-9.57V44.15Z"/>
      <path d="M291.06,47.51h-3.36V4.67h3.36V47.51Z"/>
      <path d="M316.81,48.15c-4.36,0-7.99-.82-10.78-2.43-1.71-.99-3.08-2.27-4.08-3.82-1.09-1.69-1.74-3.69-1.92-5.95l3.35-.28c.27,3.27,1.69,5.61,4.34,7.14,2.24,1.3,5.39,1.98,9.1,1.98s6.73-.68,8.84-1.96c2.49-1.51,3.69-3.84,3.69-7.13,0-2.85-.88-4.56-2.94-5.74-2.12-1.21-5.29-1.77-8.97-2.43l-.23-.04c-3.71-.67-7.54-1.37-10.49-2.92-1.72-.9-2.99-2-3.9-3.36-1.01-1.52-1.52-3.35-1.52-5.45,0-3.91,1.75-7.12,5.05-9.28,2.66-1.74,6.25-2.69,10.1-2.69,2.57,0,6.3,.44,9.43,2.55,1.47,.99,2.65,2.24,3.52,3.73,.93,1.6,1.49,3.47,1.66,5.56l-3.35,.28c-.25-3.01-1.5-5.29-3.7-6.77-1.34-.9-3.74-1.98-7.56-1.98-3.21,0-6.14,.76-8.26,2.15-2.34,1.53-3.53,3.7-3.53,6.46s1.12,4.52,3.62,5.84c2.5,1.31,6.08,1.96,9.53,2.59l.22,.04c3.98,.71,7.42,1.32,10.05,2.82,3.12,1.78,4.63,4.61,4.63,8.66,0,2.31-.49,4.36-1.46,6.08-.89,1.59-2.19,2.91-3.85,3.92-2.67,1.62-6.23,2.44-10.58,2.44h0Z"/>
      <path d="M357.36,48.15c-4.36,0-7.99-.82-10.78-2.43-1.71-.99-3.08-2.27-4.08-3.82-1.09-1.69-1.74-3.69-1.92-5.95l3.35-.28c.27,3.27,1.69,5.61,4.34,7.14,2.24,1.3,5.39,1.98,9.1,1.98s6.73-.68,8.84-1.96c2.49-1.51,3.69-3.84,3.69-7.13,0-2.85-.88-4.56-2.94-5.74-2.12-1.21-5.29-1.77-8.97-2.43l-.23-.04c-3.71-.67-7.54-1.37-10.49-2.92-1.72-.9-2.99-2-3.9-3.36-1.01-1.52-1.52-3.35-1.52-5.45,0-3.91,1.75-7.12,5.05-9.28,2.66-1.74,6.25-2.69,10.1-2.69,2.57,0,6.3,.44,9.43,2.55,1.47,.99,2.65,2.24,3.52,3.73,.93,1.6,1.49,3.47,1.66,5.56l-3.35,.28c-.25-3.01-1.5-5.29-3.7-6.77-1.34-.9-3.74-1.98-7.56-1.98-3.21,0-6.14,.76-8.26,2.15-2.34,1.53-3.53,3.7-3.53,6.46s1.12,4.52,3.62,5.84c2.5,1.31,6.08,1.96,9.53,2.59l.22,.04c3.98,.71,7.42,1.32,10.05,2.82,3.12,1.78,4.63,4.61,4.63,8.66,0,2.31-.49,4.36-1.46,6.08-.89,1.59-2.19,2.91-3.85,3.92-2.67,1.62-6.23,2.44-10.58,2.44h0Z"/>
      <path d="M421.71,47.51h-3.67l-6.08-13.81h-21.92l-6.08,13.81h-3.67l18.88-42.84h3.67l18.88,42.84Zm-11.24-17.17l-9.48-21.51-9.48,21.51h18.96Z"/>
      <path d="M455.42,8h-15.17V47.48h-3.36V8h-15.17v-3.36h33.7v3.36Z"/>
      <path d="M467.46,47.51h-3.36V4.67h3.36V47.51Z"/>
      <path d="M493.21,48.15c-4.36,0-7.99-.82-10.78-2.43-1.71-.99-3.08-2.27-4.08-3.82-1.09-1.69-1.74-3.69-1.92-5.95l3.35-.28c.27,3.27,1.69,5.61,4.34,7.14,2.24,1.3,5.39,1.98,9.1,1.98s6.73-.68,8.84-1.96c2.49-1.51,3.69-3.84,3.69-7.13,0-2.85-.88-4.56-2.94-5.74-2.12-1.21-5.29-1.77-8.97-2.43l-.23-.04c-3.71-.67-7.54-1.37-10.49-2.92-1.72-.9-2.99-2-3.9-3.36-1.01-1.52-1.52-3.35-1.52-5.45,0-3.91,1.75-7.12,5.05-9.28,2.66-1.74,6.25-2.69,10.1-2.69,2.57,0,6.3,.44,9.43,2.55,1.47,.99,2.65,2.24,3.52,3.73,.93,1.6,1.49,3.47,1.66,5.56l-3.35,.28c-.25-3.01-1.5-5.29-3.7-6.77-1.34-.9-3.74-1.98-7.56-1.98-3.21,0-6.14,.76-8.26,2.15-2.34,1.53-3.53,3.7-3.53,6.46s1.12,4.52,3.62,5.84c2.5,1.31,6.08,1.96,9.53,2.59l.22,.04c3.98,.71,7.42,1.32,10.05,2.82,3.12,1.78,4.63,4.61,4.63,8.66,0,2.31-.49,4.36-1.46,6.08-.89,1.59-2.19,2.91-3.85,3.92-2.67,1.62-6.23,2.44-10.58,2.44h0Z"/>
      <path d="M520.89,8.03v15.64l20.1-.02v3.36l-20.11,.02v20.48h-3.36V4.67h26.17v3.36h-22.8Z"/>
      <path d="M586.91,47.51h-3.67l-6.08-13.81h-21.92l-6.08,13.81h-3.67l18.88-42.84h3.67l18.88,42.84Zm-11.24-17.17l-9.48-21.51-9.48,21.51h18.96Z"/>
      <path d="M612.23,48.15c-2.6,0-5.02-.44-7.2-1.32-2.11-.85-3.99-2.09-5.6-3.7-3.96-3.97-6.14-10.06-6.13-17.16,0-7.09,2.17-13.18,6.14-17.15,1.61-1.61,3.49-2.86,5.59-3.7,2.18-.88,4.61-1.32,7.2-1.32,2.31,0,4.48,.35,6.47,1.05,1.92,.67,3.68,1.67,5.22,2.97,2.9,2.44,5.05,5.96,6.21,10.18l-3.24,.89c-.98-3.56-2.76-6.5-5.14-8.5-2.55-2.14-5.75-3.23-9.53-3.23-4.24,0-7.74,1.36-10.42,4.04-3.33,3.34-5.16,8.58-5.16,14.78,0,6.2,1.82,11.45,5.15,14.78,2.67,2.68,6.18,4.04,10.43,4.04,3.68,0,6.83-1.03,9.35-3.07,2.35-1.9,4.13-4.71,5.17-8.12l3.21,.97c-1.23,4.06-3.39,7.44-6.27,9.76-1.53,1.23-3.26,2.18-5.14,2.82-1.94,.66-4.07,.99-6.32,.99h0Z"/>
      <path d="M667.32,8h-15.17V47.48h-3.36V8h-15.17v-3.36h33.71v3.36Z"/>
      <path d="M679.37,47.51h-3.36V4.67h3.36V47.51Z"/>
      <path d="M708.36,48.15c-2.72,0-5.25-.46-7.52-1.36-2.19-.87-4.15-2.16-5.81-3.83-3.96-3.97-6.14-10-6.13-16.99,0-6.98,2.17-13.01,6.14-16.98,1.66-1.66,3.62-2.95,5.81-3.83,2.27-.91,4.8-1.37,7.52-1.37,6.05,0,11.09,2.28,14.58,6.6,1.61,1.99,2.84,4.37,3.67,7.07,.8,2.61,1.21,5.47,1.22,8.5,0,3.04-.41,5.91-1.22,8.52-.83,2.7-2.07,5.08-3.67,7.07-3.48,4.31-8.52,6.58-14.58,6.58h0Zm0-40.99c-2.29,0-4.39,.38-6.27,1.13-1.77,.7-3.34,1.74-4.68,3.08-3.33,3.34-5.17,8.53-5.16,14.61h0c0,6.09,1.82,11.28,5.15,14.61,1.34,1.34,2.91,2.37,4.68,3.08,1.88,.75,3.99,1.13,6.28,1.13,2.59,0,4.94-.48,7-1.44,1.93-.9,3.6-2.21,4.96-3.9,1.34-1.66,2.37-3.66,3.08-5.95,.71-2.29,1.07-4.83,1.07-7.54,0-2.69-.36-5.22-1.07-7.51-.7-2.29-1.74-4.29-3.08-5.95-1.37-1.69-3.04-3.01-4.96-3.91-2.06-.96-4.41-1.44-7-1.44h0Z"/>
      <path d="M768.83,47.51h-2.91l-26.35-36.48V47.51h-3.36V4.67h2.91l26.35,36.48V4.67h3.36V47.51Z"/>
    </g>
    <g>
      <path d="M332.21,122.51v57.11h-8.52v-24.78c-1.67,3.79-3.69,7.26-6.05,10.36-8.06,10.58-19.62,16.17-33.43,16.17-6.58,0-12.73-1.13-18.27-3.35-5.34-2.14-10.12-5.3-14.2-9.39-10.05-10.06-15.57-25.51-15.55-43.51-.02-17.97,5.51-33.42,15.57-43.5,4.08-4.08,8.86-7.24,14.19-9.39,5.54-2.22,11.68-3.35,18.26-3.35,5.83,0,11.34,.89,16.36,2.64,4.87,1.7,9.32,4.22,13.23,7.49,7.35,6.15,12.8,15.04,15.77,25.7l.36,1.3-8.21,2.29-.36-1.3c-2.51-9-7.02-16.42-13.04-21.46-6.46-5.41-14.57-8.15-24.11-8.15-10.74,0-19.63,3.45-26.42,10.24-8.45,8.46-13.1,21.77-13.08,37.48-.02,15.73,4.62,29.04,13.06,37.49,6.78,6.79,15.68,10.24,26.44,10.24,6.21,0,11.88-1.18,16.84-3.5,4.66-2.18,8.72-5.38,12.07-9.51,3.28-4.05,5.86-8.96,7.65-14.59,1.4-4.4,2.31-9.16,2.7-14.22h-42.87v-8.52h51.6Z"/>
      <path d="M457.88,179.63h-9.31l-15.43-35.01h-55.6l-15.43,35.01h-9.31l47.89-108.65h9.31l47.89,108.65Zm-28.5-43.54l-24.04-54.55-24.04,54.55h48.09Z"/>
      <path d="M582.88,71.09v108.54h-8.52V91.27l-40.76,88.36h-5.96l-40.76-88.46v88.46l-8.52-.07V70.98h8.6l43.67,94.77,43.67-94.65h8.6Z"/>
      <path d="M677.08,179.56l-70.04,.07V70.98h69.05v8.52h-60.53v39.72l54.75-.04v8.52l-54.76,.04v43.36l61.51-.06v8.52Z"/>
      <path d="M738.81,181.25c-11.06,0-20.26-2.08-27.35-6.17-4.33-2.5-7.81-5.76-10.35-9.68-2.76-4.27-4.4-9.35-4.88-15.09l8.49-.7c.69,8.3,4.29,14.22,11,18.1,5.69,3.29,13.67,5.03,23.09,5.03s17.07-1.72,22.42-4.96c6.3-3.83,9.37-9.74,9.37-18.08,0-7.22-2.23-11.57-7.46-14.56-5.37-3.07-13.42-4.5-22.75-6.16l-.57-.1c-9.4-1.7-19.11-3.46-26.62-7.4-4.36-2.29-7.59-5.07-9.89-8.53-2.56-3.85-3.86-8.5-3.86-13.82,0-9.93,4.43-18.06,12.81-23.53,6.75-4.4,15.85-6.83,25.61-6.83,6.53,0,15.98,1.12,23.93,6.46,3.73,2.5,6.73,5.68,8.92,9.45,2.36,4.06,3.78,8.8,4.22,14.1l-8.49,.7c-.63-7.64-3.79-13.41-9.39-17.17-3.4-2.29-9.5-5.01-19.18-5.01-8.13,0-15.57,1.93-20.96,5.44-5.93,3.87-8.94,9.38-8.94,16.39s2.83,11.47,9.18,14.8c6.35,3.33,15.41,4.97,24.17,6.56l.56,.1c10.1,1.8,18.83,3.35,25.48,7.15,7.91,4.52,11.75,11.7,11.75,21.96,0,5.86-1.24,11.06-3.7,15.43-2.26,4.03-5.55,7.37-9.77,9.93-6.77,4.11-15.8,6.2-26.84,6.2h0Z"/>
    </g>
    <g>
      <path d="M96.85,0h94.9V184.65c-31.98,0-63.96,0-95.93,0,.19-4.36,.49-8.72,.55-13.09,.04-3.32-.19-3.47-3.55-3.47-15.64,0-31.27,.03-46.91,.04-.98,0-1.96-.08-3.08-.13,.16-.56,.17-.85,.31-1.01,.4-.44,.86-.83,1.31-1.23,19.85-17.32,43.01-20.54,67.91-15.6,14.37,2.85,27.61,8.73,40.11,16.31,.56,.34,1.21,.51,1.82,.76,.05-.82-.15-1.18-.45-1.44-10.67-9.48-22.91-16.03-36.81-19.26-4.91-1.14-10-1.56-15.01-2.28-4.59-.66-6.87-3.99-5.68-8.48,.31-1.15,.69-2.35,1.32-3.34,4.15-6.51,3.95-13.57,2.5-20.69-1.49-7.31-3.71-14.45-3.59-22.05,.15-9.53-.16-19.07-.12-28.61C96.54,40.72,96.71,20.36,96.85,0Zm15.31,75.28c-.01,7.25,6.07,13.71,12.89,13.68,7.27-.03,12.99-5.96,12.98-13.46,0-7.29-5.71-13.62-12.28-13.63-7.7-.01-13.59,5.79-13.6,13.41Z"/>
      <path d="M66.07,70.14c4.09,6.31,7.77,11.5,7.6,18.28-.11,4.27-2.34,7.6-5.61,8.53-5.6,1.59-10.03-1.04-10.54-6.85-.23-2.66,.35-5.68,1.48-8.11,1.81-3.89,4.38-7.43,7.07-11.85Z"/>
    </g>
    <path d="M190.21,2V182.65H2V2H190.21m2-2H0V184.65H192.21V0h0Z"/>
  </g>
</svg>